<svg xmlns="http://www.w3.org/2000/svg" viewBox="0 0 64 64">
  <rect width="64" height="64" rx="14" fill="#0f1115"/>
  <g transform="translate(9,9)">
    <rect width="10" height="10" fill="#f2f3f5"/>
    <rect x="10" width="10" height="10" fill="#0f1115"/>
    <rect x="20" width="10" height="10" fill="#f2f3f5"/>
    <rect x="30" width="10" height="10" fill="#0f1115"/>
    <rect y="10" width="10" height="10" fill="#0f1115"/>
    <rect x="10" y="10" width="10" height="10" fill="#f2f3f5"/>
    <rect x="20" y="10" width="10" height="10" fill="#0f1115"/>
    <rect x="30" y="10" width="10" height="10" fill="#f2f3f5"/>
    <rect y="20" width="10" height="10" fill="#f2f3f5"/>
    <rect x="10" y="20" width="10" height="10" fill="#0f1115"/>
    <rect x="20" y="20" width="10" height="10" fill="#f2f3f5"/>
    <rect x="30" y="20" width="10" height="10" fill="#0f1115"/>
    <rect y="30" width="10" height="10" fill="#0f1115"/>
    <rect x="10" y="30" width="10" height="10" fill="#f2f3f5"/>
    <rect x="20" y="30" width="10" height="10" fill="#0f1115"/>
    <rect x="30" y="30" width="10" height="10" fill="#f2f3f5"/>
  </g>
  <rect x="0" y="58" width="64" height="6" fill="#e10600"/>
</svg>
